<svg version="1.2" xmlns="http://www.w3.org/2000/svg" viewBox="0 0 15 26" width="15" height="26">
	<title>facebook-icon-svg</title>
	<style>
		.s0 { fill: #d1a954 } 
	</style>
	<path id="Layer" class="s0" d="m15 0.5v4c0 0.3-0.3 0.5-0.6 0.5h-2.4c-1.7 0-2 0.6-2 1.8v2.5h4.3q0.2 0.1 0.4 0.2q0.1 0.2 0.1 0.4v4.3c0 0.2-0.2 0.5-0.5 0.5h-4.3v10.8c0 0.3-0.2 0.5-0.5 0.5h-4.8c-0.3 0-0.5-0.2-0.5-0.5v-10.8h-3.6c-0.3 0-0.6-0.3-0.6-0.5v-4.3c0-0.3 0.3-0.6 0.6-0.6h3.6v-2.9c0-3.9 2.6-6.4 6.6-6.4h3.6c0.3 0 0.6 0.2 0.6 0.5z" />
</svg>