<svg version="1.2" xmlns="http://www.w3.org/2000/svg" viewBox="0 0 26 26" width="26" height="26">
	<title>instagram-icon-svg</title>
	<style>
		.s0 { opacity: .6;fill: #ffffff } 
	</style>
	<path id="Layer" fill-rule="evenodd" class="s0" d="m26 8.1v9.8c0 4.5-3.6 8.1-8.1 8.1h-9.8c-4.5 0-8.1-3.6-8.1-8.1v-9.8c0-4.5 3.6-8.1 8.1-8.1h9.8c4.5 0 8.1 3.6 8.1 8.1zm-2.4 0c0-3.1-2.6-5.7-5.7-5.7h-9.8c-3.1 0-5.7 2.6-5.7 5.7v9.8c0 3.1 2.6 5.7 5.7 5.7h9.8c3.1 0 5.7-2.6 5.7-5.7z" />
	<path id="Layer" fill-rule="evenodd" class="s0" d="m19.5 13c0 3.6-2.9 6.5-6.5 6.5c-3.6 0-6.5-2.9-6.5-6.5c0-3.6 2.9-6.5 6.5-6.5c3.6 0 6.5 2.9 6.5 6.5zm-2.4 0c0-2.2-1.9-4.1-4.1-4.1c-2.2 0-4.1 1.9-4.1 4.1c0 2.2 1.9 4.1 4.1 4.1c2.2 0 4.1-1.9 4.1-4.1z" />
	<path id="Layer" class="s0" d="m19.1 6c0-0.5 0.4-0.9 0.9-0.9c0.5 0 0.9 0.4 0.9 0.9c0 0.5-0.4 0.9-0.9 0.9c-0.5 0-0.9-0.4-0.9-0.9z" />
</svg>