<svg version="1.2" xmlns="http://www.w3.org/2000/svg" viewBox="0 0 109 25" width="109" height="25">
	<title>prev-button-svg</title>
	<style>
		.s0 { fill: #ffffff } 
	</style>
	<path id="Layer" class="s0" d="m6.7 4.9c0.3-0.4 1-0.4 1.4 0c0.4 0.4 0.4 1.1 0 1.4l-5.7 5.7l5.7 5.7c0.4 0.3 0.4 1 0 1.4c-0.4 0.4-1.1 0.4-1.4 0l-6.4-6.4c-0.4-0.4-0.4-1 0-1.4zm34.3 8.1h-40v-2h40z" />
	<path id="Layer" fill-rule="evenodd" class="s0" d="m75.1 19h-2.4v-10.7h-3.2v10.7h-2.4v-12.8h8zm11.1-8.9q0 2-1.1 3.1q-1 1.1-3 1.1h-0.6v4.7h-2.4v-12.9h3.3q3.8 0 3.8 4zm-4.7 2.1h0.5q0.9 0 1.3-0.5q0.4-0.4 0.4-1.5q0-1.1-0.4-1.5q-0.4-0.5-1.2-0.5h-0.6zm13.9 6.7h-5.8v-12.9h5.8v2.1h-3.4v3.1h3.1v2h-3.1v3.6h3.4zm13 3.7h-2.3v-3.7h-5.8v3.7h-2.3v-5.8h0.8q1.8-4.8 2.3-10.7h5.8v10.7h1.5zm-3.8-5.8v-8.6h-1.5q-0.2 2.1-0.7 4.4q-0.5 2.3-1.2 4.2z" />
</svg>