<svg version="1.2" xmlns="http://www.w3.org/2000/svg" viewBox="0 0 26 14" width="26" height="14">
	<title>vkontakte-icon-svg</title>
	<style>
		.s0 { fill: #d1a954 } 
	</style>
	<path id="Layer" class="s0" d="m26 13q0 0.2 0 0.4q-0.1 0.2-0.4 0.4q-0.3 0.1-0.8 0.1l-3.5 0.1q-0.3 0-0.7-0.1q-0.4-0.1-0.7-0.3l-0.3-0.1q-0.4-0.3-0.9-0.8q-0.6-0.6-1-1q-0.3-0.5-0.8-0.8q-0.4-0.3-0.8-0.2q0 0-0.1 0.1q0 0-0.2 0.2q-0.2 0.1-0.3 0.3q-0.1 0.3-0.2 0.7q-0.1 0.4-0.1 1q0 0.2 0 0.3q-0.1 0.2-0.1 0.3h-0.1q-0.2 0.3-0.7 0.3h-1.6q-0.9 0.1-2-0.2q-1-0.2-1.7-0.7q-0.8-0.4-1.4-0.8q-0.7-0.4-1-0.7l-0.3-0.3q-0.2-0.2-0.4-0.4q-0.2-0.3-1-1.2q-0.7-0.9-1.4-1.9q-0.7-1-1.7-2.7q-0.9-1.7-1.7-3.5q-0.1-0.2-0.1-0.3q0-0.2 0-0.2l0.1-0.1q0.2-0.3 0.8-0.3h3.7q0.1 0 0.3 0.1q0.1 0.1 0.2 0.1h0.1q0.2 0.2 0.3 0.5q0.3 0.6 0.6 1.3q0.4 0.7 0.6 1l0.2 0.4q0.4 0.8 0.7 1.3q0.4 0.6 0.7 0.9q0.3 0.3 0.6 0.5q0.2 0.2 0.4 0.2q0.2 0 0.4-0.1q0 0 0.1-0.1q0 0 0.1-0.2q0.1-0.3 0.2-0.6q0.1-0.4 0.1-1.1q0.1-0.6 0-1.6q0-0.5-0.1-0.9q-0.1-0.4-0.2-0.6l-0.1-0.2q-0.3-0.4-1.1-0.5q-0.2 0 0.1-0.3q0.2-0.3 0.5-0.4q0.7-0.3 3.2-0.3q1.1 0 1.8 0.2q0.3 0 0.5 0.1q0.2 0.1 0.3 0.3q0.1 0.2 0.1 0.5q0.1 0.2 0.1 0.5q0 0.4-0.1 0.7q0 0.4 0 0.9q0 0.6 0 1.1q0 0.1 0 0.5q0 0.4 0 0.6q0 0.3 0 0.6q0.1 0.3 0.2 0.5q0.1 0.2 0.3 0.3q0.1 0 0.2 0q0.1 0.1 0.4-0.1q0.2-0.2 0.5-0.5q0.3-0.2 0.7-0.8q0.4-0.6 0.9-1.4q0.8-1.3 1.4-2.9q0.1-0.1 0.2-0.2q0.1-0.1 0.1-0.1l0.1-0.1h0.1q0 0 0.1 0q0.2-0.1 0.3 0l3.9-0.1q0.5 0 0.9 0.1q0.3 0.1 0.4 0.2l0.1 0.1q0.3 0.8-2.1 3.8q-0.3 0.4-0.8 1.1q-1.1 1.2-1.3 1.6q-0.2 0.6 0.2 1.1q0.3 0.2 1.1 1h0.1v0.1q1.9 1.6 2.6 2.8q0 0 0.1 0.1q0 0.1 0.1 0.4z" />
</svg>